<?xml version="1.0" encoding="utf-8"?>
<!-- Generator: Adobe Illustrator 24.1.3, SVG Export Plug-In . SVG Version: 6.00 Build 0)  -->
<svg version="1.1" id="Capa_1" xmlns="http://www.w3.org/2000/svg" xmlns:xlink="http://www.w3.org/1999/xlink" x="0px" y="0px"
	 viewBox="0 0 1080 1080" style="enable-background:new 0 0 1080 1080;" xml:space="preserve">
<style type="text/css">
	.st0{fill:#FFFFFF;}
</style>
<rect width="1080" height="1080"/>
<g>
	<g>
		<g>
			<path class="st0" d="M414.33,303.8c83.02,4.32,121.93,95.13,121.93,95.13l55.11,106.32c0.42,0.85,1.28,0.85,1.7,0l60.4-96.77
				c5.95-11.9,4.67-25.92-5.1-32.29c-0.42-0.42-0.85-0.85,0-1.7v-0.43c0.85-1.27,2.55-2.12,3.82-2.12h39.52
				c1.27,0,1.7,0.85,0.85,2.12l-0.42,0.43c-0.42,0.85-1.7,1.27-2.55,1.7c-16.57,6.8-23.37,17.85-30.59,31.44L593.49,513.3
				c-0.42,0.42-0.42,1.28-0.42,1.7c0,9.35,0,88.07,0,98.7c0,9.77,1.27,19.12,11.47,22.94c0.42,0.42,0.85,0.85,0.85,1.27v0.42
				c0,0.85-0.85,1.27-1.7,1.27H561.3c-0.85,0-1.28-0.42-1.28-1.27v-0.42c0-0.42,0.42-0.85,0.85-1.27
				c10.2-3.82,11.47-13.17,11.47-22.94c0-0.42,1.09-94.04,1.09-99.98c0-0.42,0-0.42,0-0.85L515.5,403.25
				c0,0-42.37-83.02-106.37-95.13c0,0-107.23-7.78-131.45,95.99c0,0-14.7,82.15,57.94,123.66c0,0,32.86,24.21,74.37,16.43v3.46
				c0,0-44.97,4.32-76.97-16.43c0,0-74.37-44.1-60.53-123.66C272.5,407.57,282.88,300.34,414.33,303.8z"/>
		</g>
		<path class="st0" d="M564.78,356c0-27.62,21.67-41.64,47.59-41.64c31.02,0,43.34,23.79,46.74,31.87c0.42,1.27,2.12,1.7,2.97,0.85
			l8.92-11.9c0.85-0.85,0.85-2.12,0-3.4c-5.52-5.1-25.49-21.67-59.06-21.67c-37.39,0-66.28,20.82-66.28,51.84
			c0,39.3,33.84,42.16,63.68,66.81l11.67-18.59C591.5,399.54,564.78,384,564.78,356z"/>
		<path class="st0" d="M669,446.92l12.11,12.11c0,0,58.8,56.21,25.94,131.45c0,0-36.32,84.75-147.01,76.97
			c0,0-83.02-8.65-105.5-78.69c0,0-32-95.13,71.78-141.82l1.3,3.89c0,0-76.97,24.21-73.51,112.42c0,0,3.46,70.05,73.51,90.8
			c0,0,83.02,31.13,140.09-29.4c0,0,48.43-47.56,18.16-123.66c0,0-9.51-21.62-33.73-42.37l10.38-16.43L669,446.92z"/>
	</g>
	<g>
		<path class="st0" d="M384.93,710.81c-1.61,0-3.39,1.61-4.04,2.95c-2.22,4.43-4.34,8.95-6.52,13.38c-0.04,0.13-0.09,0.26-0.13,0.35
			v9.47c0,0.61,0.13,1.22,0.48,1.69c0.39,0.7,1.04,1.04,1.91,1.09h0.17v0.35h-7.91v-0.35c0.83,0,1.56-0.26,2.04-1
			c0.39-0.56,0.52-1.22,0.52-1.87v-9.38l-7.82-13.9c-0.87-1.26-2.52-2.78-4.08-2.78h-0.09v-0.35h8.3v0.35
			c-1,0.17-1.48,0.65-1.48,1.35c0,0.39,0.13,0.83,0.39,1.3l7.43,13.21c2.13-4.43,4.3-8.82,6.43-13.25c0.22-0.39,0.3-0.78,0.3-1.09
			c0-0.78-0.52-1.3-1.61-1.52v-0.35h5.73v0.35H384.93z"/>
		<path class="st0" d="M383.24,723.11c1.65-2.13,4.43-3,7.08-3.04c1.52,0,3.04,0.26,4.26,0.83c0.26,0.13,0.52,0.26,0.78,0.43
			c1.09,0.69,1.61,1.48,1.87,2.65c0.04,0.22,0.04,0.43,0.04,0.65c0,3.21-3.52,3.95-6.17,4.65c-5.08,1.56-6.78,3.95-6.78,6.08v0.26
			c0.17,2.69,2,4.04,4.13,4.04c0.26,0,0.48,0,0.74-0.04c2.22-0.3,5.47-2.87,5.47-5.3c0-0.52-0.13-1-0.43-1.48
			c1.78-0.61,2.82-1.39,3.08-3v6.21c0,2.13,0.78,2.43,2.52,2.43v0.35h-0.3c-0.87,0-1.61,0.17-2.22,0.39
			c-0.61,0.26-1.09,0.61-1.39,0.91h-0.43c-0.52-0.3-0.83-1.35-0.91-3.08v-0.91c-1.22,2.3-3.56,4-6.47,4.04
			c-1.3,0-2.52-0.22-3.52-0.65c-1.69-0.74-2.87-2.26-2.87-4.13v-0.09c0.04-2,1.13-3.74,2.87-4.69c3.26-1.78,9.99-1,9.99-5.73
			c0-3.04-1.56-4.43-4.56-4.43h-0.22c-2.87,0-5.65,1.78-6.56,4.52V723.11z"/>
		<path class="st0" d="M406.61,724.8c0.69-1.69,4.73-4.95,7.86-4.95c1,0,1.91,0.35,2.61,1.17l-2,2.43
			c-0.39-1.09-2.04-2.04-3.61-2.04c-0.56,0-1.13,0.13-1.61,0.43c-1.09,0.69-1.74,1.26-2.3,2.04c-0.35,0.39-0.61,0.87-0.96,1.43
			v11.56c0.04,1.35,0.78,2.65,2.26,2.69v0.35h-7.3v-0.35c1.56-0.04,2.26-1.43,2.3-2.82v-13.29c0-1.74-0.56-2.26-2.3-2.3v-0.35
			c1.35,0,2.78-0.13,3.87-0.96h0.39c0.65,0.83,0.74,1.61,0.78,2.52V724.8z"/>
		<path class="st0" d="M418.91,731.14c0,0.43,0.09,0.91,0.22,1.43c1,3.74,3.3,6.04,6.99,6.04c0.26,0,0.56,0,0.83-0.04
			c3.34-0.26,6.47-2.04,7.3-6.65h0.39c-0.61,4.43-3.95,8.25-9.17,8.38h-0.17c-5.26,0-9.17-4.08-9.17-10.17v-0.09
			c0-5.91,3.69-10.21,9.17-10.21h0.17c2.17,0.04,4.21,0.65,5.82,2.04c1.09,0.87,2.26,2.26,2.26,3.74c0,0.35-0.04,0.65-0.17,1
			c-0.35,0.96-2.56,1.04-5.17,1.04h-1.78c-1.91,0-3.87,0-5.26,0.52C419.82,728.71,418.91,729.62,418.91,731.14z M421.08,727.89
			c3.61-1.26,9.77,0.7,9.9-3c0-0.69-0.22-1.52-0.56-2c-0.87-1.65-2.95-2.56-5.17-2.56c-3.26,0-6.82,2.13-6.95,7.34
			c0,0.78,0.17,2.69,0.3,3.43C418.69,729.23,419.82,728.32,421.08,727.89z"/>
		<path class="st0" d="M447.8,737.75c-0.61,1.3-2.22,2.3-4.43,2.35c-0.78,0-1.48-0.09-2.08-0.3c-1.61-0.52-2.69-1.74-2.69-3.3v-0.09
			c0-4.87-0.04-9.73-0.04-14.6c0-1-0.65-1.3-1.91-1.3h-0.26v-0.43h0.48c0.43,0,0.91-0.04,1.35-0.13c1.74-0.52,2.52-1.82,2.78-3.34
			h0.3v3.52h4.6v0.39h-4.6v14.42c0.09,2.52,0.48,4.26,3.39,4.39h0.09c1.22,0,2.3-0.74,2.74-1.82L447.8,737.75z"/>
		<path class="st0" d="M455.14,719.94h8.78v0.35l-11.38,19.33h8.56c1.3,0,2.13-3.78,2.3-4.69h0.39c-0.09,1.69-0.22,3.39-0.3,5.08
			h-13.9v-0.39L461,720.28h-8.12c-2.17,0-2.78,3.08-3,4.74h-0.35c0.09-1.87,0.17-3.69,0.3-5.56
			C450.79,719.76,452.53,719.94,455.14,719.94z"/>
		<path class="st0" d="M469,723.41c0-1.43-0.87-2.17-2.26-2.17v-0.39c0.83,0,1.61-0.04,2.26-0.13c1.09-0.17,1.87-0.43,2.39-0.78
			h0.35v17.03c0.09,1.35,0.78,2.69,2.3,2.69v0.35h-7.3v-0.35c1.52,0,2.26-1.43,2.26-2.82V723.41z M468.17,711.55
			c0-1.09,0.91-2,2.04-2c1.09,0,2.04,0.91,2.04,2c0,1.13-0.96,2.04-2.04,2.04C469.08,713.59,468.17,712.68,468.17,711.55z"/>
		<path class="st0" d="M500.62,740.88c-8.65,0-14.99-6.21-14.99-15.47v-0.13c0.04-8.99,6.08-15.6,15.12-15.6h0.26
			c9.77,0.17,14.81,6.65,15.16,15.6v0.61c0,7.65-5.73,14.86-15.16,14.99H500.62z M488.9,723.45c0,3.13,0.52,6,1.61,8.56
			c1.09,2.61,2.61,4.6,4.56,6.08c1.91,1.52,4.13,2.26,6.6,2.26c2.13,0,4-0.56,5.69-1.65c1.69-1.13,3-2.74,4-4.87
			c0.96-2.13,1.48-4.65,1.48-7.6c0-3.13-0.56-5.91-1.65-8.34c-1.09-2.43-2.61-4.34-4.56-5.69c-1.95-1.35-4.26-2.04-6.91-2.04
			c-3.39,0-6.04,1.17-7.95,3.52C489.85,716.07,488.9,719.33,488.9,723.45z"/>
		<path class="st0" d="M536.08,731.93h0.39c-0.61,4.43-3.95,8.25-9.17,8.38h-0.17c-5.3,0-9.21-4.08-9.21-10.17v-0.09
			c0-5.86,3.69-10.21,9.21-10.21h0.17c3.52,0.09,6.04,1.56,7.56,3.95l-2.39,3.87l-0.35-0.22c0.3-0.7,0.43-1.39,0.43-2
			c0-3-3.04-5.04-5.86-5.04c-4.6,0-6.6,3.52-6.6,7.56c0,1.65,0.35,3.39,0.96,5c1.26,3.17,3.69,5.65,7.12,5.65
			c0.22,0,0.39-0.04,0.61-0.04C532.12,738.31,535.25,736.53,536.08,731.93z"/>
		<path class="st0" d="M574.22,737.1c0.09,1.35,0.78,2.65,2.26,2.69v0.35h-7.25v-0.35c1.52-0.04,2.26-1.43,2.26-2.82v-11.08
			c0-1.48-0.13-3.17-1.39-4c-0.61-0.43-1.39-0.61-2.21-0.61c-0.87,0-1.87,0.22-2.78,0.65c-1.48,0.69-2.61,1.95-3.52,3.34
			c0,0-5.82,6-7.78,8.08v2.65c0,2.13,0.78,2.43,2.52,2.48v0.3h-0.3c-0.87,0-1.65,0.17-2.22,0.39c-0.65,0.26-1.13,0.61-1.43,0.96
			h-0.39c-0.52-0.35-0.87-1.39-0.91-3.13v-0.48c-0.13,0.09-0.26,0.17-0.39,0.22c-1.26,1.95-3.48,3.39-6.13,3.39
			c-1.3,0-2.48-0.22-3.48-0.61c-1.74-0.78-2.87-2.3-2.87-4.17v-0.09c0.04-2,1.09-3.74,2.87-4.69c3.26-1.78,9.99-1,9.99-5.69
			c0-3.08-1.61-4.47-4.69-4.47c-2.91,0-5.73,1.74-6.65,4.56v-1.91c1.65-2.13,4.39-3,7.08-3h0.3c1.43,0,2.78,0.26,3.95,0.78
			c0.26,0.13,0.52,0.26,0.78,0.43c1.04,0.7,1.61,1.48,1.82,2.65c0.04,0.22,0.04,0.48,0.04,0.7c0,3.17-3.48,3.95-6.17,4.6
			c-5,1.52-6.73,3.95-6.73,6.04v0.3c0.17,2.74,2,4.04,4.13,4.04c0.22,0,0.48,0,0.74-0.04c1.26-0.17,2.52-0.91,3.48-1.78
			c0.56-0.48,0.91-1.04,1.39-1.56c0.65-0.83,7.91-7.95,8.3-8.43v-4.17c0-1.43-0.83-2.13-2.26-2.17v-0.35
			c1.35-0.04,3.56-0.13,4.65-0.96h0.35v4.65c0.74-1.35,1.65-2.21,2.65-3c1.22-0.96,2.61-1.56,4.13-1.65h0.26
			c2.78,0,5.34,1.95,5.6,5.34V737.1z M561.58,737.14c0.04,1.35,0.78,2.65,2.26,2.65v0.35h-7.25v-0.35c1.52,0,2.22-1.39,2.26-2.78
			v-6.69l2.74-2.56V737.14z"/>
		<path class="st0" d="M589.64,737.75c-0.61,1.3-2.21,2.3-4.43,2.35c-0.78,0-1.48-0.09-2.08-0.3c-1.61-0.52-2.69-1.74-2.69-3.3
			v-0.09c0-4.87-0.04-9.73-0.04-14.6c0-1-0.65-1.3-1.91-1.3h-0.26v-0.43h0.48c0.43,0,0.91-0.04,1.35-0.13
			c1.74-0.52,2.52-1.82,2.78-3.34h0.3v3.52h4.6v0.39h-4.6v14.42c0.09,2.52,0.48,4.26,3.39,4.39h0.09c1.22,0,2.3-0.74,2.74-1.82
			L589.64,737.75z"/>
		<path class="st0" d="M599.46,740.31c-2.69,0-4.91-0.96-6.69-2.82c-1.78-1.87-2.69-4.3-2.69-7.3v-0.09c0-2.95,0.87-5.39,2.61-7.34
			c1.74-1.91,4.04-2.87,6.86-2.87h0.17c3.08,0.13,5.39,1.09,6.99,2.95c1.56,1.87,2.39,4.26,2.52,7.25v0.43
			c0,2.52-0.83,4.74-2.52,6.65c-1.69,1.95-4,3-6.99,3.13H599.46z M597.72,720.59c-1.26,0.3-2.26,1-3.08,2.13
			c-1.04,1.52-1.56,3.61-1.56,6.26c0,2.04,0.3,3.87,0.87,5.52c0.61,1.69,1.43,3,2.52,3.95c0.39,0.35,0.83,0.65,1.26,0.87
			c0.74,0.35,1.56,0.52,2.48,0.57c1.13-0.04,2.17-0.39,3.08-1.09c0.91-0.69,1.65-1.74,2.17-3.13c0.56-1.35,0.83-3,0.83-4.87
			c0-2.04-0.3-3.82-0.91-5.39c-0.61-1.56-1.43-2.78-2.52-3.65c-1.09-0.87-2.3-1.3-3.74-1.3
			C598.64,720.46,598.16,720.5,597.72,720.59z"/>
		<path class="st0" d="M638.3,736.62c0.04,1.35,0.87,2.04,2.26,2.08v0.35c-0.52,0-1,0.04-1.43,0.04c-0.3,0.04-0.57,0.09-0.83,0.09
			c-1.09,0.17-1.87,0.48-2.39,0.83h-0.35v-3.3c-0.96,2.3-3.43,3.56-6.04,3.56c-2.17,0-4.47-0.83-6.17-2.61
			c-1.61-1.65-2.43-4.21-2.52-6.86v-0.43c0-2.74,0.78-5.43,2.3-7.25c1.78-2.09,4.47-3.17,7.73-3.17h0.17
			c1.48,0.04,3.39,0.65,4.52,1.65v-11.56c-0.04-1.43-0.87-2.13-2.3-2.17v-0.35c0.87,0,1.61-0.09,2.3-0.17
			c1.04-0.13,1.87-0.39,2.35-0.78h0.39V736.62z M635.56,724.97c-0.26-2.91-2.87-4.6-5.52-4.6c-1.04,0-2.08,0.26-3,0.83
			c-2.69,1.61-3.65,5.91-3.65,8.95c0,0.26,0.04,0.52,0.04,0.78c0.3,5.47,4.04,8.56,7.34,8.56c2.08,0,4-1.22,4.78-3.87V724.97z"/>
		<path class="st0" d="M645.08,731.14c0,0.43,0.09,0.91,0.22,1.43c1,3.74,3.3,6.04,6.99,6.04c0.26,0,0.56,0,0.83-0.04
			c3.35-0.26,6.47-2.04,7.3-6.65h0.39c-0.61,4.43-3.95,8.25-9.17,8.38h-0.17c-5.26,0-9.17-4.08-9.17-10.17v-0.09
			c0-5.91,3.69-10.21,9.17-10.21h0.17c2.17,0.04,4.21,0.65,5.82,2.04c1.09,0.87,2.26,2.26,2.26,3.74c0,0.35-0.04,0.65-0.17,1
			c-0.35,0.96-2.56,1.04-5.17,1.04h-1.78c-1.91,0-3.87,0-5.26,0.52C645.99,728.71,645.08,729.62,645.08,731.14z M647.25,727.89
			c3.61-1.26,9.77,0.7,9.9-3c0-0.69-0.22-1.52-0.56-2c-0.87-1.65-2.95-2.56-5.17-2.56c-3.26,0-6.82,2.13-6.95,7.34
			c0,0.78,0.17,2.69,0.3,3.43C644.86,729.23,645.99,728.32,647.25,727.89z"/>
		<path class="st0" d="M672.84,740.79h-0.43v-9.99h0.48c0.09,2.69,0.61,5.08,2,6.86c1.74,2.22,4.17,2.82,6.82,2.82h0.13
			c3.48,0,6.34-1.82,6.39-5.39v-0.09c0-4.74-3.74-6.95-7.56-9.38c-3.87-2.35-7.47-4.56-7.47-9.34l0.04-0.7
			c0.87-4.43,4.08-5.91,8.12-5.91h0.22c2.13,0.04,4.26,0.48,5.73,1.22c0.39,0.17,0.78,0.26,1.09,0.26c0.83,0,1.26-0.56,1.26-1.52
			h0.43v8.65h-0.52c-0.22-4.34-3.13-8.17-7.91-8.17h-0.09c-3.17,0.04-5.39,2.13-5.47,5.3v0.13c0,4.3,4.69,6.91,8.91,9.77
			c3.39,2.3,6.26,4.52,6.26,8.56v0.43c-0.35,4.95-5.34,6.47-9.51,6.56h-0.26c-3.48,0-6.26-1.69-7.38-1.69
			C673.36,739.22,672.97,739.62,672.84,740.79z"/>
		<path class="st0" d="M729.01,737.1c0.09,1.35,0.78,2.65,2.26,2.69v0.35h-7.25v-0.35c1.52-0.04,2.26-1.43,2.26-2.82v-11.08
			c0-1.48-0.13-3.17-1.39-4c-0.61-0.43-1.39-0.61-2.21-0.61c-0.87,0-1.87,0.22-2.78,0.65c-1.48,0.69-2.61,1.95-3.52,3.34
			c0,0-5.82,6-7.78,8.08v2.65c0,2.13,0.78,2.43,2.52,2.48v0.3h-0.3c-0.87,0-1.65,0.17-2.21,0.39c-0.65,0.26-1.13,0.61-1.43,0.96
			h-0.39c-0.52-0.35-0.87-1.39-0.91-3.13v-0.48c-0.13,0.09-0.26,0.17-0.39,0.22c-1.26,1.95-3.48,3.39-6.13,3.39
			c-1.3,0-2.48-0.22-3.47-0.61c-1.74-0.78-2.87-2.3-2.87-4.17v-0.09c0.04-2,1.09-3.74,2.87-4.69c3.26-1.78,9.99-1,9.99-5.69
			c0-3.08-1.61-4.47-4.69-4.47c-2.91,0-5.73,1.74-6.65,4.56v-1.91c1.65-2.13,4.39-3,7.08-3h0.3c1.43,0,2.78,0.26,3.95,0.78
			c0.26,0.13,0.52,0.26,0.78,0.43c1.04,0.7,1.61,1.48,1.82,2.65c0.04,0.22,0.04,0.48,0.04,0.7c0,3.17-3.48,3.95-6.17,4.6
			c-5,1.52-6.73,3.95-6.73,6.04v0.3c0.17,2.74,2,4.04,4.13,4.04c0.22,0,0.48,0,0.74-0.04c1.26-0.17,2.52-0.91,3.48-1.78
			c0.56-0.48,0.91-1.04,1.39-1.56c0.65-0.83,7.91-7.95,8.3-8.43v-4.17c0-1.43-0.83-2.13-2.26-2.17v-0.35
			c1.35-0.04,3.56-0.13,4.65-0.96h0.35v4.65c0.74-1.35,1.65-2.21,2.65-3c1.22-0.96,2.61-1.56,4.13-1.65h0.26
			c2.78,0,5.34,1.95,5.6,5.34V737.1z M716.37,737.14c0.04,1.35,0.78,2.65,2.26,2.65v0.35h-7.25v-0.35c1.52,0,2.21-1.39,2.26-2.78
			v-6.69l2.74-2.56V737.14z"/>
		<path class="st0" d="M751.17,731.93h0.39c-0.61,4.43-3.95,8.25-9.17,8.38h-0.17c-5.3,0-9.21-4.08-9.21-10.17v-0.09
			c0-5.86,3.69-10.21,9.21-10.21h0.17c3.52,0.09,6.04,1.56,7.56,3.95l-2.39,3.87l-0.35-0.22c0.3-0.7,0.43-1.39,0.43-2
			c0-3-3.04-5.04-5.86-5.04c-4.61,0-6.6,3.52-6.6,7.56c0,1.65,0.35,3.39,0.96,5c1.26,3.17,3.69,5.65,7.12,5.65
			c0.22,0,0.39-0.04,0.61-0.04C747.22,738.31,750.34,736.53,751.17,731.93z"/>
		<path class="st0" d="M766.94,725.84c0-1.52-0.13-3.17-1.39-4.04c-0.61-0.39-1.35-0.61-2.17-0.61c-0.91,0-1.87,0.26-2.82,0.65
			c-1.52,0.69-2.65,2-3.56,3.34v11.9c0.09,1.35,0.78,2.69,2.3,2.69v0.35H752v-0.35c1.52,0,2.26-1.43,2.26-2.82v-26.8
			c0-1.43-0.87-2.17-2.26-2.21v-0.35c1.3,0,3.56-0.13,4.65-0.91h0.35v18.07c0.74-1.35,1.65-2.22,2.65-3c1.26-1,2.65-1.61,4.13-1.65
			h0.35c2.78,0,5.3,1.91,5.56,5.34v11.64c0.09,1.35,0.78,2.65,2.22,2.69h0.09v0.35h-7.3v-0.35c1.52,0,2.26-1.43,2.26-2.82V725.84z"
			/>
		<path class="st0" d="M776.5,731.14c0,0.43,0.09,0.91,0.22,1.43c1,3.74,3.3,6.04,6.99,6.04c0.26,0,0.56,0,0.83-0.04
			c3.35-0.26,6.47-2.04,7.3-6.65h0.39c-0.61,4.43-3.95,8.25-9.17,8.38h-0.17c-5.26,0-9.17-4.08-9.17-10.17v-0.09
			c0-5.91,3.69-10.21,9.17-10.21h0.17c2.17,0.04,4.21,0.65,5.82,2.04c1.09,0.87,2.26,2.26,2.26,3.74c0,0.35-0.04,0.65-0.17,1
			c-0.35,0.96-2.56,1.04-5.17,1.04h-1.78c-1.91,0-3.87,0-5.26,0.52C777.41,728.71,776.5,729.62,776.5,731.14z M778.67,727.89
			c3.61-1.26,9.77,0.7,9.9-3c0-0.69-0.22-1.52-0.56-2c-0.87-1.65-2.95-2.56-5.17-2.56c-3.26,0-6.82,2.13-6.95,7.34
			c0,0.78,0.17,2.69,0.3,3.43C776.28,729.23,777.41,728.32,778.67,727.89z"/>
		<path class="st0" d="M799.57,719.94h8.78v0.35l-11.38,19.33h8.56c1.3,0,2.13-3.78,2.3-4.69h0.39c-0.09,1.69-0.22,3.39-0.3,5.08
			h-13.9v-0.39l11.43-19.33h-8.12c-2.17,0-2.78,3.08-3,4.74h-0.35c0.09-1.87,0.17-3.69,0.3-5.56
			C795.23,719.76,796.96,719.94,799.57,719.94z"/>
	</g>
	<g>
		<path class="st0" d="M426.7,757.95c-0.79,0.73-1.97,1.1-3.54,1.1h-2.82v5.96h-1.4v-13.98h4.22c1.56,0,2.74,0.37,3.53,1.1
			c0.79,0.73,1.19,1.71,1.19,2.92C427.88,756.25,427.49,757.21,426.7,757.95z M426.44,755.05c0-0.93-0.26-1.64-0.78-2.12
			c-0.52-0.48-1.35-0.72-2.5-0.72h-2.82v5.64h2.82C425.35,757.85,426.44,756.91,426.44,755.05z"/>
		<path class="st0" d="M431.62,752.17v5.22h5.3v1.16h-5.3v5.3h5.9v1.16h-7.3v-14h7.3v1.16H431.62z"/>
		<path class="st0" d="M447.72,765.01l-3.46-5.84h-2.58v5.84h-1.4v-13.98h4.2c1.56,0,2.74,0.37,3.55,1.12
			c0.81,0.75,1.21,1.73,1.21,2.94c0,1.01-0.29,1.88-0.87,2.59c-0.58,0.71-1.44,1.18-2.57,1.39l3.6,5.94H447.72z M441.68,758.03h2.82
			c1.09,0,1.92-0.27,2.47-0.8c0.55-0.53,0.83-1.25,0.83-2.14c0-0.92-0.27-1.63-0.8-2.13s-1.37-0.75-2.52-0.75h-2.8V758.03z"/>
		<path class="st0" d="M465.68,751.21v13.8h-1.4v-11.02l-4.92,11.02h-1.02l-4.92-10.98v10.98h-1.4v-13.8h1.48l5.34,11.96l5.34-11.96
			H465.68z"/>
		<path class="st0" d="M476.96,761.69h-6.36l-1.22,3.32h-1.48l5.1-13.8h1.58l5.08,13.8h-1.48L476.96,761.69z M476.54,760.53
			l-2.76-7.56l-2.76,7.56H476.54z"/>
		<path class="st0" d="M492.44,765.01h-1.4l-7.74-11.76v11.76h-1.4v-13.98h1.4l7.74,11.74v-11.74h1.4V765.01z"/>
		<path class="st0" d="M497.02,752.17v5.22h5.3v1.16h-5.3v5.3h5.9v1.16h-7.3v-14h7.3v1.16H497.02z"/>
		<path class="st0" d="M516.22,765.01h-1.4l-7.74-11.76v11.76h-1.4v-13.98h1.4l7.74,11.74v-11.74h1.4V765.01z"/>
		<path class="st0" d="M527.58,751.03v1.16h-3.88v12.82h-1.4v-12.82h-3.9v-1.16H527.58z"/>
		<path class="st0" d="M548.94,751.21v13.8h-1.4v-11.02l-4.92,11.02h-1.02l-4.92-10.98v10.98h-1.4v-13.8h1.48l5.34,11.96l5.34-11.96
			H548.94z"/>
		<path class="st0" d="M560.22,761.69h-6.36l-1.22,3.32h-1.48l5.1-13.8h1.58l5.08,13.8h-1.48L560.22,761.69z M559.8,760.53
			l-2.76-7.56l-2.76,7.56H559.8z"/>
		<path class="st0" d="M572.62,765.01l-6.06-6.46v6.46h-1.4v-13.98h1.4v6.54l6.06-6.54h1.78l-6.54,6.98l6.6,7H572.62z"/>
		<path class="st0" d="M577.92,752.17v5.22h5.3v1.16h-5.3v5.3h5.9v1.16h-7.3v-14h7.3v1.16H577.92z"/>
		<path class="st0" d="M587.92,751.03v8.8c0,1.39,0.33,2.41,0.99,3.08c0.66,0.67,1.56,1,2.71,1c1.15,0,2.04-0.33,2.69-0.99
			s0.97-1.69,0.97-3.09v-8.8h1.4v8.78c0,1.77-0.47,3.11-1.41,4c-0.94,0.89-2.16,1.34-3.67,1.34s-2.73-0.45-3.67-1.34
			c-0.94-0.89-1.41-2.23-1.41-4v-8.78H587.92z"/>
		<path class="st0" d="M607.56,757.95c-0.79,0.73-1.97,1.1-3.54,1.1h-2.82v5.96h-1.4v-13.98h4.22c1.56,0,2.74,0.37,3.53,1.1
			c0.79,0.73,1.19,1.71,1.19,2.92C608.74,756.25,608.35,757.21,607.56,757.95z M607.3,755.05c0-0.93-0.26-1.64-0.78-2.12
			c-0.52-0.48-1.35-0.72-2.5-0.72h-2.82v5.64h2.82C606.21,757.85,607.3,756.91,607.3,755.05z"/>
		<path class="st0" d="M624.32,757.95c-0.79,0.73-1.97,1.1-3.54,1.1h-2.82v5.96h-1.4v-13.98h4.22c1.56,0,2.74,0.37,3.53,1.1
			c0.79,0.73,1.19,1.71,1.19,2.92C625.5,756.25,625.11,757.21,624.32,757.95z M624.06,755.05c0-0.93-0.26-1.64-0.78-2.12
			c-0.52-0.48-1.35-0.72-2.5-0.72h-2.82v5.64h2.82C622.97,757.85,624.06,756.91,624.06,755.05z"/>
		<path class="st0" d="M635.28,765.01l-3.46-5.84h-2.58v5.84h-1.4v-13.98h4.2c1.56,0,2.74,0.37,3.55,1.12
			c0.81,0.75,1.21,1.73,1.21,2.94c0,1.01-0.29,1.88-0.87,2.59c-0.58,0.71-1.44,1.18-2.57,1.39l3.6,5.94H635.28z M629.24,758.03h2.82
			c1.09,0,1.92-0.27,2.47-0.8c0.55-0.53,0.83-1.25,0.83-2.14c0-0.92-0.27-1.63-0.8-2.13s-1.37-0.75-2.52-0.75h-2.8V758.03z"/>
		<path class="st0" d="M642.34,764.24c-1.05-0.61-1.88-1.45-2.49-2.54s-0.91-2.32-0.91-3.69s0.3-2.6,0.91-3.69
			c0.61-1.09,1.44-1.93,2.49-2.54c1.05-0.61,2.23-0.91,3.52-0.91c1.31,0,2.49,0.3,3.54,0.91c1.05,0.61,1.88,1.45,2.48,2.54
			c0.6,1.09,0.9,2.32,0.9,3.69s-0.3,2.6-0.9,3.69c-0.6,1.09-1.43,1.93-2.48,2.54c-1.05,0.61-2.23,0.91-3.54,0.91
			C644.57,765.15,643.39,764.84,642.34,764.24z M648.66,763.21c0.83-0.48,1.48-1.17,1.96-2.07c0.48-0.9,0.72-1.94,0.72-3.13
			s-0.24-2.23-0.72-3.12c-0.48-0.89-1.13-1.58-1.96-2.06c-0.83-0.48-1.76-0.72-2.8-0.72s-1.97,0.24-2.8,0.72
			c-0.83,0.48-1.48,1.17-1.96,2.06c-0.48,0.89-0.72,1.93-0.72,3.12s0.24,2.23,0.72,3.13c0.48,0.9,1.13,1.59,1.96,2.07
			c0.83,0.48,1.76,0.72,2.8,0.72S647.83,763.69,648.66,763.21z"/>
		<path class="st0" d="M662.9,751.03v1.16h-6.16v5.22h5.2v1.16h-5.2v6.44h-1.4v-13.98H662.9z"/>
		<path class="st0" d="M672.76,751.03v1.16h-6.16v5.22h5.2v1.16h-5.2v6.44h-1.4v-13.98H672.76z"/>
		<path class="st0" d="M676.46,752.17v5.22h5.3v1.16h-5.3v5.3h5.9v1.16h-7.3v-14h7.3v1.16H676.46z"/>
		<path class="st0" d="M686.93,764.67c-0.7-0.32-1.25-0.77-1.65-1.34c-0.4-0.57-0.61-1.21-0.64-1.92h1.48
			c0.07,0.68,0.37,1.28,0.9,1.79c0.53,0.51,1.31,0.77,2.34,0.77c0.95,0,1.7-0.24,2.25-0.73c0.55-0.49,0.83-1.1,0.83-1.85
			c0-0.6-0.15-1.08-0.46-1.45c-0.31-0.37-0.69-0.64-1.14-0.82c-0.45-0.18-1.08-0.38-1.88-0.59c-0.93-0.25-1.67-0.5-2.22-0.74
			c-0.55-0.24-1.01-0.61-1.4-1.12s-0.58-1.19-0.58-2.06c0-0.72,0.19-1.36,0.56-1.93c0.37-0.57,0.9-1.01,1.58-1.33
			s1.46-0.48,2.34-0.48c1.29,0,2.34,0.32,3.13,0.95c0.79,0.63,1.25,1.45,1.37,2.45h-1.52c-0.09-0.57-0.41-1.08-0.94-1.53
			c-0.53-0.45-1.25-0.67-2.16-0.67c-0.84,0-1.54,0.22-2.1,0.67c-0.56,0.45-0.84,1.06-0.84,1.83c0,0.59,0.15,1.06,0.46,1.42
			c0.31,0.36,0.69,0.63,1.15,0.82c0.46,0.19,1.08,0.39,1.87,0.6c0.91,0.25,1.64,0.5,2.2,0.75c0.56,0.25,1.03,0.62,1.42,1.13
			s0.58,1.19,0.58,2.04c0,0.65-0.17,1.27-0.52,1.86c-0.35,0.59-0.86,1.06-1.54,1.42c-0.68,0.36-1.49,0.54-2.44,0.54
			C688.44,765.15,687.63,764.99,686.93,764.67z"/>
		<path class="st0" d="M697.96,751.03v13.98h-1.4v-13.98H697.96z"/>
		<path class="st0" d="M703.9,764.24c-1.05-0.61-1.88-1.45-2.49-2.54c-0.61-1.09-0.91-2.32-0.91-3.69s0.3-2.6,0.91-3.69
			c0.61-1.09,1.44-1.93,2.49-2.54c1.05-0.61,2.23-0.91,3.52-0.91c1.31,0,2.49,0.3,3.54,0.91c1.05,0.61,1.88,1.45,2.48,2.54
			c0.6,1.09,0.9,2.32,0.9,3.69s-0.3,2.6-0.9,3.69c-0.6,1.09-1.43,1.93-2.48,2.54c-1.05,0.61-2.23,0.91-3.54,0.91
			C706.13,765.15,704.95,764.84,703.9,764.24z M710.22,763.21c0.83-0.48,1.48-1.17,1.96-2.07c0.48-0.9,0.72-1.94,0.72-3.13
			s-0.24-2.23-0.72-3.12c-0.48-0.89-1.13-1.58-1.96-2.06c-0.83-0.48-1.76-0.72-2.8-0.72s-1.97,0.24-2.8,0.72
			c-0.83,0.48-1.48,1.17-1.96,2.06c-0.48,0.89-0.72,1.93-0.72,3.12s0.24,2.23,0.72,3.13c0.48,0.9,1.13,1.59,1.96,2.07
			c0.83,0.48,1.76,0.72,2.8,0.72S709.39,763.69,710.22,763.21z"/>
		<path class="st0" d="M727.44,765.01h-1.4l-7.74-11.76v11.76h-1.4v-13.98h1.4l7.74,11.74v-11.74h1.4V765.01z"/>
		<path class="st0" d="M738.72,761.69h-6.36l-1.22,3.32h-1.48l5.1-13.8h1.58l5.08,13.8h-1.48L738.72,761.69z M738.3,760.53
			l-2.76-7.56l-2.76,7.56H738.3z"/>
		<path class="st0" d="M745.06,763.87h5.02v1.14h-6.42v-13.98h1.4V763.87z"/>
	</g>
</g>
</svg>
